<svg width="111" height="111" viewBox="0 0 111 111" fill="none" xmlns="http://www.w3.org/2000/svg">
<rect x="0.793091" y="0.793091" width="109.517" height="109.517" rx="21.9034" fill="white"/>
<path fill-rule="evenodd" clip-rule="evenodd" d="M30.3626 50.6235V72.5269C30.3626 78.273 35.0207 82.9311 40.7667 82.9311H71.4315C77.1776 82.9311 81.8357 78.273 81.8357 72.5269V50.6235H87.3115V72.5269C87.3115 81.2972 80.2018 88.4069 71.4315 88.4069H40.7667C31.9964 88.4069 24.8867 81.2972 24.8867 72.5269V50.6235H30.3626Z" fill="#FF3B1B"/>
<path fill-rule="evenodd" clip-rule="evenodd" d="M43.5046 70.3366C43.5046 66.4051 46.6918 63.218 50.6233 63.218H60.4798C64.4113 63.218 67.5984 66.4051 67.5984 70.3366V85.669H62.1226V70.3366C62.1226 69.4293 61.3871 68.6938 60.4798 68.6938H50.6233C49.716 68.6938 48.9805 69.4293 48.9805 70.3366V85.669H43.5046V70.3366Z" fill="#FF3B1B"/>
<path fill-rule="evenodd" clip-rule="evenodd" d="M28.1736 30.0833L26.4346 43.1256C26.4304 43.1573 26.4256 43.1888 26.4203 43.2203C25.9961 45.7287 26.8803 47.5712 28.4603 48.9017C30.1416 50.3175 32.6758 51.1711 35.2907 51.1711C38.0643 51.1711 40.5176 49.799 42.0091 47.6843C42.4874 47.0061 43.2474 46.5815 44.0756 46.5297C44.9038 46.4779 45.7108 46.8045 46.2698 47.4177C48.9364 50.3427 52.2926 52.2663 55.5514 52.2663C58.8101 52.2663 62.1664 50.3427 64.8329 47.4177C65.392 46.8045 66.199 46.4779 67.0272 46.5297C67.8554 46.5815 68.6154 47.0061 69.0937 47.6843C70.5852 49.799 73.0385 51.1711 75.8121 51.1711C78.4371 51.1711 80.9134 50.2859 82.5155 48.8544C84.0149 47.5146 84.8489 45.6368 84.3261 43.0643C84.3214 43.0413 84.317 43.0183 84.313 42.9953L82.0076 29.946C81.5695 28.2597 80.0461 27.0773 78.2978 27.0773H31.9164C30.1149 27.0773 28.5604 28.3309 28.1736 30.0833ZM22.7882 29.0848C23.6584 24.7335 27.479 21.6014 31.9164 21.6014H78.2978C82.6021 21.6014 86.3452 24.5524 87.3497 28.7379C87.3626 28.7918 87.3739 28.846 87.3836 28.9006L89.6995 42.0099C90.6147 46.5734 89.0297 50.3772 86.164 52.9377C83.3936 55.4132 79.5445 56.6469 75.8121 56.6469C72.3237 56.6469 69.1406 55.3407 66.7252 53.196C63.6854 55.7945 59.8231 57.7421 55.5514 57.7421C51.2797 57.7421 47.4174 55.7945 44.3776 53.196C41.9622 55.3407 38.779 56.6469 35.2907 56.6469C31.6143 56.6469 27.7638 55.474 24.9331 53.0902C22.0116 50.6301 20.2586 46.918 21.0127 42.3571L22.759 29.2599C22.7669 29.2012 22.7766 29.1428 22.7882 29.0848Z" fill="#FF3B1B"/>
</svg>
